<mxfile host="app.diagrams.net" modified="2022-11-25T04:08:08.072Z" agent="5.0 (Macintosh; Intel Mac OS X 10_15_7) AppleWebKit/537.36 (KHTML, like Gecko) Chrome/107.0.0.0 Safari/537.36" version="20.6.0" etag="7RSyCpq2DjQ2keQAspoC" type="github">
  <diagram id="QJcAKla6z1GSIZzuR1aX" name="Page-1">
    <mxGraphModel dx="5930" dy="3980" grid="1" gridSize="10" guides="1" tooltips="1" connect="1" arrows="1" fold="1" page="1" pageScale="1" pageWidth="4681" pageHeight="3300" math="0" shadow="0">
      <root>
        <mxCell id="0" />
        <mxCell id="1" parent="0" />
      </root>
    </mxGraphModel>
  </diagram>
</mxfile>
